<?xml version="1.0" standalone="no"?><!DOCTYPE svg PUBLIC "-//W3C//DTD SVG 1.1//EN" "http://www.w3.org/Graphics/SVG/1.1/DTD/svg11.dtd"><svg class="icon" width="200px" height="200.00px" viewBox="0 0 1024 1024" version="1.1" xmlns="http://www.w3.org/2000/svg"><path fill="#d81e06" d="M981.911552 526.206976c0-46.751744-37.900288-84.656128-84.656128-84.656128l-27.53024 0L809.713664 151.7568c-4.185088-20.610048-18.714624-34.762752-37.916672-34.762752L592.359424 116.994048l-0.946176-1.087488L591.413248 92.849152c0-12.505088-10.134528-22.643712-22.639616-22.643712l-88.674304 0c-12.505088 0-22.643712 10.138624-22.643712 22.643712l0 21.174272-0.23552 2.970624L279.735296 116.994048c-24.469504 0.264192-35.47648 15.423488-40.229888 34.762752l-66.363392 286.956544c-0.219136 1.0752-0.13824 1.826816-0.295936 2.837504l-39.799808 0c-46.75584 0-84.656128 37.904384-84.656128 84.656128L31.502336 723.739648c0 45.063168 35.314688 81.55136 79.724544 84.156416l-0.458752 75.396096c-0.227328 29.064192 25.930752 42.391552 58.17344 43.941888l41.203712 0c32.129024 0 58.169344-11.81696 58.169344-43.941888l0-74.896384 497.659904 0 0 74.896384c0 32.124928 26.04032 43.941888 58.169344 43.941888l41.203712 0c32.129024 0 58.17344-11.81696 58.17344-43.941888l0-75.923456c41.889792-5.085184 74.468352-40.368128 74.468352-83.629056L981.911552 526.206976zM207.843328 694.756352c-28.62592 0-51.82976-23.207936-51.82976-51.82976 0-28.62592 23.20384-51.833856 51.82976-51.833856 28.621824 0 51.82976 23.207936 51.82976 51.833856C259.673088 671.548416 236.465152 694.756352 207.843328 694.756352zM774.001664 423.916544 273.123328 423.916544c-11.68896 0-21.16608-9.47712-21.16608-21.16608l45.85472-201.055232c5.731328-15.653888 10.361856-19.61984 26.23488-21.16608l406.083584 0c15.873024 0 26.45504 6.8352 29.76256 21.16608l35.269632 201.055232C795.163648 414.439424 785.690624 423.916544 774.001664 423.916544zM839.991296 694.756352c-28.62592 0-51.82976-23.207936-51.82976-51.82976 0-28.62592 23.202816-51.833856 51.82976-51.833856 28.62592 0 51.82976 23.207936 51.82976 51.833856C891.821056 671.548416 868.617216 694.756352 839.991296 694.756352z" /></svg>